<?xml version="1.0" encoding="UTF-8"?>
<svg version="1.1" xmlns="http://www.w3.org/2000/svg" width="700" height="700">
<path d="M0 0 C0.74914582 -0.00367669 1.49829165 -0.00735338 2.27013886 -0.01114148 C4.77621979 -0.02213938 7.28225919 -0.0260156 9.7883606 -0.02983093 C11.58739858 -0.03609877 13.38643528 -0.04274586 15.18547058 -0.04974365 C21.09231673 -0.07075715 26.99916304 -0.08114698 32.90603638 -0.09111023 C34.94413389 -0.0951595 36.98223128 -0.09927648 39.02032852 -0.10346031 C48.60182091 -0.12251001 58.18330563 -0.13673867 67.7648133 -0.14507228 C78.79860281 -0.15482896 89.83219087 -0.18110839 100.86590946 -0.22157317 C109.4097001 -0.25182272 117.95343331 -0.26654971 126.49727643 -0.26985329 C131.59226817 -0.27219467 136.68704467 -0.28103498 141.78197861 -0.30631447 C146.58373422 -0.32975378 151.38513532 -0.33376528 156.18693352 -0.32355309 C157.93833667 -0.32306136 159.68975823 -0.32927293 161.4411068 -0.34310913 C190.52346965 -0.55979691 208.80316019 11.54647999 229.07348251 31.50308895 C234.19744073 36.56633242 239.29307839 41.65788363 244.38453579 46.75377536 C246.85025399 49.22057551 249.31896988 51.68436542 251.78760839 54.14824253 C257.61700774 59.96661445 263.44114842 65.79021277 269.26199341 71.61714172 C275.23365136 77.59484572 281.21444805 83.56329342 287.19975257 89.52733082 C292.373335 94.68321658 297.54100471 99.84497789 302.70412469 105.01134068 C305.77268854 108.08170333 308.84335015 111.14988416 311.91982269 114.21232414 C314.81267358 117.09246736 317.69798277 119.97997036 320.57801628 122.87292862 C321.625835 123.92308407 322.67612825 124.97077835 323.7292881 126.01557732 C340.82908461 142.98953989 353.79422265 161.6001038 354.0066604 186.50287259 C353.9970554 187.71097966 353.98745039 188.91908673 353.97755432 190.1638031 C353.98146008 191.50392521 353.98711064 192.84404315 353.99432522 194.18415153 C354.00891484 197.81942498 353.99899871 201.45425797 353.9845885 205.0895164 C353.97338753 209.02820888 353.9854511 212.96684411 353.99443054 216.90553284 C354.00830267 224.60219075 354.00085202 232.29868364 353.98575496 239.99533357 C353.96882317 248.97179816 353.97211406 257.94822246 353.97584904 266.9246981 C353.98171641 282.94729387 353.96759937 298.96981085 353.94290161 314.99238586 C353.91897613 330.51585339 353.91190194 346.03921571 353.9223938 361.56269836 C353.93381922 378.49761467 353.93571363 395.43248241 353.9212957 412.36739814 C353.91976998 414.17522358 353.91824962 415.98304903 353.9167347 417.79087448 C353.91597688 418.68019213 353.91521907 419.56950979 353.91443829 420.48577646 C353.90970864 426.73308509 353.91153745 432.98037192 353.91580009 439.22768021 C353.92074145 446.84628189 353.91467693 454.46478438 353.8949058 462.08336343 C353.8850771 465.96553657 353.87988053 469.84755912 353.88779831 473.72974014 C353.89491343 477.29138317 353.88791628 480.85272388 353.87019468 484.41432737 C353.86430634 486.2958654 353.87291549 488.17743213 353.88224119 490.05895627 C353.80116529 501.06050824 351.97033879 511.54869453 346.78884888 521.33467102 C346.44072144 522.00756165 346.09259399 522.68045227 345.73391724 523.37373352 C336.37221619 540.92244948 320.96122875 552.62133439 302.09744263 558.45576477 C297.73182634 559.60735059 293.71956196 560.27237199 289.19659424 560.27859879 C288.14615401 560.28243993 287.09571379 560.28628108 286.01344204 560.29023862 C284.29182653 560.2889389 284.29182653 560.2889389 282.53543091 560.28761292 C281.31118188 560.29058404 280.08693285 560.29355516 278.82558537 560.29661632 C275.43009085 560.30378974 272.03464693 560.30647511 268.63914847 560.30721378 C264.97568939 560.30906686 261.31224121 560.31661561 257.64878845 560.323349 C249.63813807 560.33692412 241.6274927 560.34295612 233.61683273 560.34735966 C228.61168054 560.35012418 223.60653028 560.35436199 218.60137939 560.35886383 C204.73514426 560.37105678 190.86891067 560.38135516 177.00267029 560.38473892 C175.67171268 560.38506827 175.67171268 560.38506827 174.31386703 560.38540427 C172.97977022 560.38573169 172.97977022 560.38573169 171.61872196 560.38606572 C169.81654421 560.38650918 168.01436647 560.38695575 166.21218872 560.3874054 C164.87128247 560.38773754 164.87128247 560.38773754 163.5032872 560.38807639 C149.03057811 560.3920212 134.55791948 560.4094654 120.08522987 560.43276492 C105.21517362 560.4565102 90.34514265 560.46894226 75.47506714 560.47010684 C67.13067884 560.47102196 58.78635623 560.47673287 50.44198608 560.49492645 C43.33369781 560.51037055 36.22549551 560.51542269 29.11719364 560.50718835 C25.49430686 560.50329667 21.871593 560.50413823 18.2487278 560.5182457 C14.3101238 560.53344144 10.37175963 560.52507401 6.43313599 560.5146637 C5.30323809 560.5227201 4.17334019 560.53077651 3.00920296 560.53907704 C-7.77649228 560.47273157 -18.12733021 558.53412337 -27.71115112 553.45967102 C-28.38404175 553.11154358 -29.05693237 552.76341614 -29.75021362 552.40473938 C-47.29892959 543.04303834 -58.99781449 527.6320509 -64.83224487 508.76826477 C-66.17635832 503.67278387 -66.66856938 498.94663221 -66.65507889 493.6809845 C-66.65713152 492.93453723 -66.65918416 492.18808997 -66.66129899 491.4190231 C-66.66696781 488.9097694 -66.66551188 486.40057062 -66.66409302 483.89131165 C-66.66667673 482.07722377 -66.66968991 480.26313647 -66.67309642 478.44904995 C-66.68116914 473.45734778 -66.68295615 468.46565998 -66.68369389 463.47395205 C-66.685544 458.09268733 -66.6930912 452.71143008 -66.6998291 447.33016968 C-66.71341558 435.55930814 -66.71943783 423.78845001 -66.72383976 412.01758194 C-66.72660204 404.66729409 -66.7308394 397.31700755 -66.73534393 389.96672058 C-66.74753774 369.61524539 -66.75783636 349.26377125 -66.76121902 328.91229248 C-66.76143859 327.60952183 -66.76165816 326.30675118 -66.76188438 324.96450263 C-66.76210265 323.65861204 -66.76232093 322.35272145 -66.76254582 321.00725842 C-66.76298929 318.36102486 -66.76343585 315.7147913 -66.7638855 313.06855774 C-66.76410693 311.75593417 -66.76432836 310.4433106 -66.7645565 309.09091055 C-66.76850332 287.82835615 -66.78595331 266.56583605 -66.80924502 245.3032949 C-66.83296624 223.4723629 -66.84542125 201.6414481 -66.84658694 179.81050301 C-66.84750335 167.55372882 -66.85324686 155.2969993 -66.87140656 143.04023743 C-66.88681801 132.60155687 -66.89192186 122.16293478 -66.88366845 111.72424501 C-66.87976548 106.40015514 -66.88067435 101.07618297 -66.8947258 95.75210762 C-66.90748585 90.87260974 -66.90624867 85.99331776 -66.89413509 81.11382008 C-66.89218172 79.35399017 -66.89523975 77.59414557 -66.90397945 75.83433628 C-66.96434507 62.85118863 -66.03584259 50.66866516 -59.83615112 38.95967102 C-59.48802368 38.2867804 -59.13989624 37.61388977 -58.78121948 36.92060852 C-49.41951844 19.37189256 -34.008531 7.67300765 -15.14474487 1.83857727 C-10.03332727 0.49025996 -5.28202832 -0.0014011 0 0 Z M161.47634888 65.14717102 C161.36030461 78.92544043 161.27155667 92.70359284 161.21728802 106.48225212 C161.19123674 112.88082564 161.15591928 119.27906387 161.09915161 125.67744446 C161.04467406 131.85663761 161.01489474 138.03550901 161.00196266 144.21492386 C160.99275115 146.56796963 160.97476322 148.92099855 160.94769859 151.27390671 C160.9112004 154.57953677 160.90641239 157.88385113 160.90872192 161.18965149 C160.89074554 162.15422775 160.87276917 163.11880402 160.85424805 164.11260986 C160.91633924 172.3699201 163.60153056 178.6671278 168.85134888 185.02217102 C173.99104663 189.18287872 179.14391204 192.27534504 185.89924622 192.26742554 C187.25590393 192.26948753 187.25590393 192.26948753 188.63996887 192.27159119 C189.62971207 192.26799591 190.61945526 192.26440063 191.63919067 192.26069641 C192.6832608 192.26084244 193.72733093 192.26098846 194.80303955 192.26113892 C198.26056991 192.2604412 201.71804666 192.25265533 205.17556763 192.24482727 C207.57024608 192.24296259 209.96492491 192.24153892 212.35960388 192.24053955 C218.66757253 192.2367183 224.97551822 192.22689133 231.28347778 192.21583557 C237.7182077 192.20561304 244.15294131 192.20104012 250.587677 192.19599915 C263.2172441 192.18526874 275.84679527 192.16838876 288.47634888 192.14717102 C282.99185529 185.47414867 276.902284 179.4319268 270.79544067 173.33686829 C269.61372046 172.15379127 268.4322127 170.97050202 267.25090027 169.78701782 C264.05940505 166.59098438 260.86477997 163.39809705 257.66942573 160.20592237 C254.32384713 156.8628825 250.98071686 153.51739567 247.63719177 150.17230225 C242.02962874 144.56292345 236.41996793 138.95564904 230.80911255 133.3495636 C224.31444199 126.86035044 217.82340322 120.36752116 211.33420819 113.87283283 C205.76143242 108.29552799 200.18672152 102.72016299 194.61036998 97.14643329 C191.27994103 93.81756621 187.95019831 90.48802029 184.6221981 87.15672493 C181.49967197 84.03132254 178.37473358 80.90835279 175.24786949 77.78729057 C174.09765669 76.63840602 172.94830509 75.48865857 171.79985428 74.3380127 C170.2394896 72.77493943 168.67611665 71.21494089 167.1118927 69.6557312 C166.23568614 68.77990167 165.35947958 67.90407213 164.45672131 67.00170231 C162.80688698 65.03324846 162.80688698 65.03324846 161.47634888 65.14717102 Z M189.96072388 271.07295227 C185.98391452 276.63002008 185.03907209 282.20775545 186.03884888 288.89717102 C187.54057385 296.6735453 192.12989619 301.03742422 198.22634888 305.52217102 C219.82556651 322.01267507 232.50829114 345.27269028 236.94509888 371.96748352 C237.22293798 374.36770464 237.38605751 376.73285827 237.47634888 379.14717102 C237.51630981 380.05338196 237.55627075 380.9595929 237.59744263 381.89326477 C238.23117286 409.96378641 227.99061339 434.72138822 209.41775513 455.44404602 C205.96259729 459.03129239 202.27262561 462.14288146 198.35134888 465.20967102 C191.21775711 470.87264541 186.76857168 475.01381303 185.53884888 484.37763977 C185.37048243 491.83837793 188.5447398 497.18081588 193.59353638 502.48310852 C198.29282856 506.63642484 203.21164563 507.68695601 209.29666138 507.42060852 C224.80398788 505.47524498 241.21945127 486.67074048 250.47634888 475.14717102 C274.66590334 443.40284052 285.67769603 404.33526712 280.35134888 364.64717102 C276.32434104 337.76221841 265.30851372 312.71734542 247.47634888 292.14717102 C246.78025513 291.3299054 246.08416138 290.51263977 245.36697388 289.67060852 C230.43697692 272.27511223 230.43697692 272.27511223 210.30056763 262.84638977 C201.92499007 262.80045424 195.7172419 264.77511031 189.96072388 271.07295227 Z M73.47634888 308.14717102 C70.78485715 311.47373383 68.15210453 314.84021899 65.53494263 318.22529602 C61.68594361 323.19190968 57.70049062 328.04657276 53.71609497 332.90473938 C53.1922522 333.54548401 52.66840942 334.18622864 52.12869263 334.84638977 C51.66454956 335.41188538 51.20040649 335.97738098 50.72219849 336.56001282 C49.56562889 338.03343216 48.51537472 339.58863226 47.47634888 341.14717102 C44.40701294 341.5160675 44.40701294 341.5160675 40.49197388 341.51826477 C39.06749245 341.53565845 37.64301333 341.5532427 36.21853638 341.57099915 C33.97597774 341.58104118 31.73357742 341.58467655 29.49099731 341.58296204 C27.32418059 341.58655265 25.1585737 341.6139809 22.99197388 341.64326477 C21.69549927 341.6451178 20.39902466 341.64697083 19.06326294 341.64888 C13.83164546 342.3756518 10.79822319 344.75185925 7.22634888 348.52217102 C2.82759473 355.12030224 3.16946203 361.78516403 3.17556763 369.44795227 C3.1712825 370.63889999 3.16699738 371.82984772 3.1625824 373.05688477 C3.15684858 375.57256943 3.15633183 378.08827068 3.16067505 380.60395813 C3.16382915 384.43571053 3.14038292 388.26668618 3.11502075 392.0983429 C3.11274697 394.54821172 3.11204463 396.99808261 3.11306763 399.44795227 C3.10385788 400.58573624 3.09464813 401.7235202 3.0851593 402.89578247 C3.12701259 410.16001766 3.47302924 417.45489387 8.23025513 423.30342102 C9.12550903 423.96857727 9.12550903 423.96857727 10.03884888 424.64717102 C10.63826294 425.11123352 11.237677 425.57529602 11.85525513 426.05342102 C15.47274686 428.49413833 17.87065208 428.12805384 22.21463013 427.90107727 C46.06750585 427.06601955 46.06750585 427.06601955 52.10134888 432.27998352 C54.97083293 435.54460964 57.15944154 439.16555504 59.23464966 442.97383118 C61.21344098 446.43729958 63.71074072 449.43874434 66.22634888 452.52217102 C67.12196355 453.66064247 68.01652491 454.79994345 68.90994263 455.94013977 C76.97578914 466.85162207 76.97578914 466.85162207 88.78494263 472.58076477 C94.53609013 472.59131733 97.79586664 471.542815 102.47634888 468.14717102 C108.7374928 461.88602709 108.70864116 454.75169963 108.7585144 446.36470032 C108.75603699 445.07620178 108.75355957 443.78770325 108.75100708 442.4601593 C108.75535943 441.07472968 108.76054432 439.68930246 108.76649475 438.30387878 C108.7798404 434.55584733 108.78046834 430.807917 108.77793145 427.05986643 C108.77685863 423.92387108 108.78175309 420.78789594 108.78653687 417.65190494 C108.79761692 410.24943257 108.79807806 402.84701095 108.79202271 395.4445343 C108.78598475 387.82427578 108.79829279 380.20420198 108.81959277 372.58397496 C108.83724352 366.02662298 108.84320463 359.46932961 108.83995503 352.91195476 C108.83814742 349.00212062 108.84072588 345.09241824 108.85466957 341.18260574 C108.86729988 337.50367074 108.8652551 333.82502237 108.85225868 330.14609146 C108.84878821 328.16428623 108.86003268 326.18247203 108.87182617 324.20069885 C108.8275674 316.64747691 108.64929433 309.12777532 103.75759888 302.99092102 C102.87588013 302.32576477 102.87588013 302.32576477 101.97634888 301.64717102 C101.09463013 300.95107727 101.09463013 300.95107727 100.19509888 300.24092102 C90.01070484 293.759943 80.26254262 300.38031344 73.47634888 308.14717102 Z M164.47634888 339.14717102 C161.60833381 343.78047911 161.03873167 347.72626537 161.07229614 353.06098938 C161.06543289 353.83090714 161.05856964 354.60082489 161.05149841 355.39407349 C161.03327925 357.92524444 161.03706081 360.45579266 161.04275513 362.98701477 C161.03819094 364.75529175 161.03288466 366.52356696 161.02687073 368.2918396 C161.0179492 371.99295775 161.02035176 375.69386001 161.03030396 379.39497375 C161.04179183 384.12726734 161.02158028 388.85881453 160.99238682 393.59101009 C160.97400051 397.24142148 160.97432211 400.89165481 160.98002434 404.54210091 C160.98017726 406.28633738 160.97415714 408.03058614 160.96173286 409.77477837 C160.94677839 412.21830834 160.95753138 414.66046964 160.97463989 417.10395813 C160.96497192 417.81742401 160.95530396 418.53088989 160.94534302 419.26597595 C161.02485939 424.71645089 162.49727668 427.74283886 165.47634888 432.14717102 C168.75339994 434.9690761 171.94613767 435.88340084 176.30838013 435.67060852 C185.46475117 433.4598811 191.69628332 423.54046308 196.47634888 416.14717102 C204.8716547 401.38229237 206.48009254 385.09076004 202.57791138 368.69795227 C198.69787733 356.19103401 191.44538213 343.7125626 180.48416138 336.14717102 C174.54741332 333.19034709 169.3189532 334.86766022 164.47634888 339.14717102 Z " fill="#FFFFFF" transform="translate(206.52365112304688,69.85282897949219)"/>
</svg>
